# xmcd
# 
# Track frame offsets:
#     150
#     31230
#     47133
#     63258
#     81415
#     99120
#     118615
#     134210
#     155270
#     168793
#     184785
#     205080
# 
# Disc length: 2949
# 
# Revision: 6
# Processed by: cddbd v1.5.2PL0 Copyright (c) Steve Scherf et al.
# Submitted via: fre:ac v1.0.27
# 
DISCID=9a0b830c
DTITLE=安全地帯 - 安全地帯X〜雨のち晴れ〜
DYEAR=2003
DGENRE=J-Pop
TTITLE0=明星
TTITLE1=雨のち晴れ
TTITLE2=茜
TTITLE3=カメレオン
TTITLE4=ショコラ
TTITLE5=この星はみんなの星
TTITLE6=薔薇
TTITLE7=水のない噴水
TTITLE8=負け戦
TTITLE9=月見草
TTITLE10=いつの日か会いましょう
TTITLE11=夜間飛行
EXTD=
EXTT0=
EXTT1=
EXTT2=
EXTT3=
EXTT4=
EXTT5=
EXTT6=
EXTT7=
EXTT8=
EXTT9=
EXTT10=
EXTT11=
PLAYORDER=
